<?xml version="1.0" encoding="UTF-8"?>
<svg version="1.1" xmlns="http://www.w3.org/2000/svg" width="1254" height="1254">
<path d="M0 0 C413.82 0 827.64 0 1254 0 C1254 413.82 1254 827.64 1254 1254 C840.18 1254 426.36 1254 0 1254 C0 840.18 0 426.36 0 0 Z " fill="#0E1219" transform="translate(0,0)"/>
<path d="M0 0 C0.62696777 0.30953613 1.25393555 0.61907227 1.89990234 0.93798828 C16.68508079 8.28672155 29.13153844 17.57363013 41 29 C41.75539063 29.680625 42.51078125 30.36125 43.2890625 31.0625 C55.47162469 42.40335789 64.40429212 57.32283305 72 72 C72.46664062 72.86882812 72.93328125 73.73765625 73.4140625 74.6328125 C91.70726833 111.33724484 90.71891313 153.75841116 78.1796875 191.8984375 C75.48604604 199.69101488 72.06416456 206.84246322 68 214 C67.42507813 215.05960938 66.85015625 216.11921875 66.2578125 217.2109375 C60.34618509 227.8082788 53.09800574 237.01115564 44.875 245.875 C44.30128662 246.4935083 43.72757324 247.1120166 43.13647461 247.74926758 C39.71857968 251.36467782 36.17836582 254.63652875 32.28955078 257.74267578 C31.65122314 258.36505127 31.65122314 258.36505127 31 259 C31 259.66 31 260.32 31 261 C32.71131829 262.27707534 32.71131829 262.27707534 34.953125 263.50390625 C35.79431885 263.99270264 36.6355127 264.48149902 37.50219727 264.98510742 C38.40897217 265.50564697 39.31574707 266.02618652 40.25 266.5625 C48.27171512 271.27115863 55.74719903 276.15924878 63 282 C63.89460937 282.70382812 64.78921875 283.40765625 65.7109375 284.1328125 C84.83933304 299.4245671 100.86559983 316.87062811 113.8125 337.6875 C114.35173096 338.5542334 114.89096191 339.4209668 115.4465332 340.31396484 C121.78444712 350.68008883 126.78901279 361.41223096 130.83984375 372.86328125 C131.49770424 374.64194111 132.17492594 376.41444855 132.91235352 378.16162109 C135.63653316 384.65579548 137.46762298 391.14761734 139.0625 398 C139.30548828 398.99644531 139.54847656 399.99289062 139.79882812 401.01953125 C143.45287363 416.4304924 145.54624117 431.28633299 145.375 447.125 C145.36935028 447.92803558 145.36370056 448.73107117 145.35787964 449.55844116 C145.19547624 469.38120949 142.93836269 487.71047049 137.625 506.8125 C137.43640411 507.49172516 137.24780823 508.17095032 137.05349731 508.87075806 C134.6920803 517.26116748 131.81545096 525.15738521 128 533 C127.29417973 534.55418041 126.59221041 536.11011677 125.89453125 537.66796875 C116.45310395 558.31097516 103.85736495 575.90170519 89 593 C88.28328125 593.83015625 87.5665625 594.6603125 86.828125 595.515625 C75.90715353 607.91462269 64.29466491 619.19016027 51 629 C49.89314098 629.83712299 48.78636963 630.67436192 47.6796875 631.51171875 C34.20809536 641.55889625 19.86939802 650.10090727 3.86914062 655.37353516 C2.07167549 655.9759771 0.2929407 656.63344914 -1.484375 657.29296875 C-18.73995096 663.52414896 -37.28226853 667.03775488 -55.625 667.2734375 C-56.52175949 667.28592026 -57.41851898 667.29840302 -58.342453 667.31126404 C-77.83167025 667.53022982 -96.11232822 667.34189355 -115 662 C-116.65212347 661.56426808 -118.30446117 661.1293475 -119.95703125 660.6953125 C-126.54059462 658.90763563 -132.93345479 656.85630768 -139.09765625 653.8984375 C-141.03607639 652.98296187 -142.98521459 652.23050699 -145 651.5 C-152.42285096 648.77633973 -159.39430492 645.41280633 -166.1875 641.375 C-166.91654541 640.9433252 -167.64559082 640.51165039 -168.39672852 640.06689453 C-183.91686464 630.74231705 -197.86195073 619.41730291 -211 607 C-211.85722656 606.19691406 -212.71445312 605.39382813 -213.59765625 604.56640625 C-220.47852876 597.92543737 -226.36220789 590.70054031 -232 583 C-232.47163574 582.35627441 -232.94327148 581.71254883 -233.42919922 581.04931641 C-240.43075184 571.34482779 -246.25595168 561.11122074 -251.75 550.5 C-252.0645816 549.89338531 -252.37916321 549.28677063 -252.70327759 548.66177368 C-258 538.40125575 -258 538.40125575 -258 536 C-258.66 536 -259.32 536 -260 536 C-260.2671582 536.71027344 -260.53431641 537.42054688 -260.80957031 538.15234375 C-262.98189634 543.34881849 -265.93695334 548.12947706 -268.75 553 C-269.3584375 554.08023438 -269.966875 555.16046875 -270.59375 556.2734375 C-277.69567087 568.56522362 -277.69567087 568.56522362 -285 571 C-297.39021641 572.10497544 -297.39021641 572.10497544 -302.37646484 568.46704102 C-309.12399724 562.36990986 -313.20840917 552.56300357 -317.625 544.75 C-318.33397098 543.5016792 -319.04328563 542.25355353 -319.75292969 541.00561523 C-321.17369312 538.50637751 -322.59289577 536.00626477 -324.01074219 533.50537109 C-326.74508321 528.68417549 -329.497413 523.87329445 -332.25 519.0625 C-333.21364638 517.37636193 -334.17718896 515.69016452 -335.140625 514.00390625 C-335.61048828 513.18164551 -336.08035156 512.35938477 -336.56445312 511.51220703 C-340.984375 503.77734374 -340.984375 503.77734374 -342.49047852 501.14160156 C-343.49610501 499.38179586 -344.50180152 497.62203018 -345.50756836 495.86230469 C-347.97153328 491.55106596 -350.43436524 487.23918906 -352.89453125 482.92578125 C-358.32097163 473.41491357 -363.77275419 463.91920845 -369.25 454.4375 C-376.53469526 441.82520573 -383.76505107 429.18226545 -390.98388672 416.53222656 C-393.98759632 411.26905722 -396.99484892 406.00791262 -400.00183105 400.74661255 C-400.9990647 399.00163661 -401.99614076 397.25657074 -402.99316406 395.51147461 C-406.0197569 390.2141267 -409.04698398 384.91714527 -412.07696533 379.62173462 C-413.78084347 376.64386606 -415.48424021 373.66572228 -417.1875 370.6875 C-417.52166931 370.10327271 -417.85583862 369.51904541 -418.20013428 368.91711426 C-422.70271891 361.04353033 -427.17482902 353.15332399 -431.625 345.25 C-436.5867625 336.4415896 -441.65872448 327.70182907 -446.77001953 318.97949219 C-451.29623697 311.24213241 -455.71789866 303.4498958 -460.10986328 295.63574219 C-463.96131373 288.7982835 -467.90040656 282.01648399 -471.875 275.25 C-476.95922712 266.58874739 -481.89554221 257.85374958 -486.75 249.0625 C-491.09966053 241.18793407 -495.49006677 233.3534295 -500.09179688 225.62353516 C-504.06084773 218.94229954 -507.90423757 212.19012463 -511.75 205.4375 C-516.79953402 196.5712752 -521.89521665 187.73586722 -527.0625 178.9375 C-532.65618357 169.40295664 -538.04353592 159.7642812 -543.38378906 150.0859375 C-548.15764645 141.45674963 -553.08649413 132.92811927 -558.08203125 124.42578125 C-561.46590944 118.65780707 -564.77926551 112.86052842 -568 107 C-571.76990832 100.14526856 -575.67047486 93.37483271 -579.625 86.625 C-590.83357788 67.48201799 -601.94178748 48.27823981 -612.42578125 28.7265625 C-613.97849466 25.83893971 -615.5770557 23.00449537 -617.29296875 20.2109375 C-621.68976529 12.85661515 -623.80859794 6.59937136 -622 -2 C-619.51089463 -7.29884125 -615.37729832 -11.57905036 -610 -14 C-606.44813696 -14.58219491 -602.94110934 -14.54683271 -599.34814453 -14.51757812 C-598.28722595 -14.5245874 -597.22630737 -14.53159668 -596.13323975 -14.53881836 C-592.63282953 -14.55639549 -589.13323068 -14.54477421 -585.6328125 -14.53125 C-583.19432419 -14.53394538 -580.75583693 -14.53782818 -578.31735229 -14.54284668 C-573.20804608 -14.54874172 -568.09901975 -14.54017965 -562.98974609 -14.52148438 C-556.4505485 -14.49871954 -549.91200851 -14.51180297 -543.37283516 -14.53577423 C-538.33697589 -14.5502524 -533.30127159 -14.54561642 -528.26540756 -14.53526306 C-525.85493771 -14.53260013 -523.44445366 -14.53585023 -521.0340004 -14.54518127 C-517.65917146 -14.5553769 -514.28539538 -14.53980102 -510.91064453 -14.51757812 C-509.92025177 -14.52567505 -508.92985901 -14.53377197 -507.90945435 -14.54211426 C-500.74649713 -14.45504176 -495.46485671 -12.88927885 -489.92041016 -8.26586914 C-485.27226797 -2.7325459 -481.79870478 3.21300312 -478.375 9.5625 C-477.14113895 11.8075742 -475.90675277 14.05235987 -474.671875 16.296875 C-474.05634766 17.42287109 -473.44082031 18.54886719 -472.80664062 19.70898438 C-470.1213037 24.60065217 -467.37661356 29.45789503 -464.625 34.3125 C-464.10010986 35.2408667 -463.57521973 36.1692334 -463.03442383 37.12573242 C-458.39751081 45.31995853 -453.71812121 53.48980317 -449.04019165 61.66064453 C-443.66648063 71.05006818 -438.35350918 80.47228394 -433.07836914 89.91748047 C-429.23981232 96.79027301 -425.37885813 103.64987662 -421.5 110.5 C-416.38255232 119.53934633 -411.30066787 128.59814354 -406.23046875 137.6640625 C-401.80876984 145.56625612 -397.35835943 153.45184215 -392.89672852 161.33154297 C-388.88767265 168.41677941 -384.9087163 175.51849837 -380.9375 182.625 C-376.68609688 190.23191446 -372.40140071 197.81766789 -368.0625 205.375 C-361.57228096 216.68838516 -355.25442166 228.09610203 -348.93652344 239.50634766 C-347.00583285 242.98947704 -345.07022063 246.46982191 -343.1328125 249.94921875 C-336.70675795 261.49240757 -330.29852551 273.04307508 -324.03051758 284.6730957 C-321.67461049 289.02321815 -319.26768074 293.34183747 -316.78515625 297.62109375 C-316.05824585 298.87877563 -316.05824585 298.87877563 -315.31665039 300.16186523 C-314.88215576 300.76844971 -314.44766113 301.37503418 -314 302 C-313.34 302 -312.68 302 -312 302 C-311.14341797 300.34291016 -311.14341797 300.34291016 -310.26953125 298.65234375 C-305.58947622 289.6527669 -300.77428287 280.74983576 -295.75 271.9375 C-290.3620293 262.48452643 -285.16248942 252.94139312 -280.02490234 243.3503418 C-276.3018069 236.40399649 -272.5259688 229.49184326 -268.68017578 222.61279297 C-265.47230499 216.86943782 -262.3259909 211.09401085 -259.1875 205.3125 C-254.99786969 197.59835672 -250.71770063 189.94143065 -246.375 182.3125 C-241.98432787 174.59789671 -237.73541417 166.83207032 -233.68725586 158.93212891 C-231.59231718 154.88137025 -229.39281402 150.95644482 -226.97265625 147.08984375 C-221.83377107 138.8407746 -218.03164819 132.6331389 -218.078125 122.640625 C-217.54048154 97.58643958 -205.14489989 71.15032062 -191 51 C-190.28714844 49.96875 -189.57429688 48.9375 -188.83984375 47.875 C-165.70127866 16.12396729 -130.27696245 -6.84733057 -91.40795898 -13.62573242 C-60.06295239 -18.49766744 -28.29015487 -14.17036876 0 0 Z " fill="#FCFCFC" transform="translate(821,285)"/>
<path d="M0 0 C413.82 0 827.64 0 1254 0 C1254 413.82 1254 827.64 1254 1254 C840.18 1254 426.36 1254 0 1254 C0 840.18 0 426.36 0 0 Z M169 31 C167.88625 31.26425781 166.7725 31.52851563 165.625 31.80078125 C143.8573837 37.12540291 123.17026046 46.91543744 105 60 C103.989375 60.72445312 102.97875 61.44890625 101.9375 62.1953125 C61.83645845 91.97623306 34.66911448 135.88626272 26.9601711 185.33401829 C25.88771212 192.98136826 25.71827055 200.50522241 25.74273109 208.21430111 C25.74003138 209.70397101 25.73646 211.19363954 25.73210663 212.68330553 C25.72271622 216.75434143 25.72562715 220.82528705 25.73066217 224.89632719 C25.73394492 229.33405394 25.72563291 233.77176204 25.71884382 238.20948273 C25.70855962 245.98005956 25.70569728 253.75061149 25.70775604 261.52119446 C25.71081015 273.0769156 25.70247294 284.63260924 25.69200679 296.18832502 C25.67267652 318.03045337 25.66703892 339.87257231 25.66589268 361.7147082 C25.66497312 378.5853662 25.66085399 395.45602052 25.65449142 412.32667732 C25.6526963 417.18526031 25.65091667 422.04384331 25.64914167 426.9024263 C25.64869957 428.11033593 25.64825748 429.31824556 25.64780198 430.56275851 C25.63549538 464.53437171 25.62760067 498.50598362 25.62848854 532.47759914 C25.6285197 533.7581176 25.62855086 535.03863606 25.62858296 536.3579581 C25.62874917 542.84794817 25.62894725 549.33793823 25.62915237 555.8279283 C25.62919226 557.11682963 25.62923215 558.40573096 25.62927325 559.73368991 C25.62935413 562.34016278 25.62943772 564.94663564 25.62952404 567.5531085 C25.63074928 608.09686207 25.61574047 648.64058218 25.58837891 689.18432617 C25.55764001 734.75113585 25.54044752 780.31792353 25.54230535 825.88474423 C25.54245461 830.74615641 25.54255202 835.6075686 25.54261398 840.46898079 C25.54264895 842.26444011 25.54264895 842.26444011 25.54268462 844.09617134 C25.54274609 863.33655829 25.52998867 882.57691612 25.51274945 901.81729442 C25.49577365 921.16421994 25.49383437 940.511103 25.5069681 959.85803186 C25.51434436 971.34216508 25.51073891 982.82616906 25.49108342 994.31028852 C25.47904682 1001.99415027 25.48171524 1009.67791883 25.49602441 1017.36177637 C25.50375644 1021.73140725 25.50542957 1026.10078881 25.48910971 1030.4704017 C25.29358562 1086.54585501 42.03047699 1133.1907141 81 1174 C81.90298828 1174.98226563 81.90298828 1174.98226563 82.82421875 1175.984375 C104.96202932 1199.40472875 137.21134061 1215.34220404 168 1223.3125 C169.38602417 1223.67661987 169.38602417 1223.67661987 170.80004883 1224.0480957 C190.25944841 1228.80237127 210.10799314 1228.29027813 229.98472556 1228.25693511 C234.364289 1228.25182259 238.74383844 1228.25839691 243.12339985 1228.26342177 C250.78557094 1228.27061952 258.44771381 1228.27044184 266.10988617 1228.26532745 C277.50417821 1228.25774272 288.89844657 1228.26164024 300.29273847 1228.26774407 C320.64696995 1228.27826222 341.00118887 1228.27736803 361.35542154 1228.27158624 C379.16922163 1228.26655107 396.98301712 1228.26524362 414.79681778 1228.26763153 C416.57067733 1228.26786069 416.57067733 1228.26786069 418.38037243 1228.26809447 C423.18109086 1228.26871717 427.98180928 1228.26935397 432.78252771 1228.270014 C477.80039154 1228.27612947 522.81824739 1228.27058923 567.83610999 1228.2598202 C607.80985235 1228.25033051 647.78358197 1228.25117751 687.75732422 1228.26074219 C732.69091364 1228.27145774 777.62449599 1228.27569449 822.55808651 1228.26951766 C827.35057457 1228.26887625 832.14306263 1228.26825057 836.93555069 1228.26763153 C838.11554203 1228.26747338 839.29553338 1228.26731522 840.51128204 1228.26715227 C858.31014451 1228.26487981 876.10900186 1228.26753329 893.90786362 1228.27259064 C914.15276495 1228.2783144 934.39765176 1228.27686836 954.64255129 1228.26602915 C965.9651086 1228.26016654 977.28763445 1228.25975881 988.61019092 1228.2673215 C996.18238152 1228.27182027 1003.75454699 1228.26898991 1011.32673388 1228.26031196 C1015.63491879 1228.25557482 1019.94304141 1228.25388485 1024.25122426 1228.26112393 C1054.49142046 1228.69925704 1054.49142046 1228.69925704 1084.1875 1223.75 C1085.42052856 1223.42249756 1085.42052856 1223.42249756 1086.6784668 1223.08837891 C1114.89659445 1215.40068694 1140.9501249 1202.33767001 1163 1183 C1163.84820313 1182.26136719 1164.69640625 1181.52273438 1165.5703125 1180.76171875 C1168.07931052 1178.54044986 1170.54802617 1176.28397562 1173 1174 C1173.73863281 1173.31550781 1174.47726562 1172.63101562 1175.23828125 1171.92578125 C1206.2929853 1142.08458251 1227.0956152 1096.67172449 1228.27499652 1053.58585525 C1228.4318863 1045.20994592 1228.40619166 1036.83209831 1228.38540266 1028.45513368 C1228.37772927 1024.01110918 1228.38759713 1019.56711563 1228.39513266 1015.12309563 C1228.40592588 1007.34938671 1228.40566491 999.57574039 1228.39799118 991.80202866 C1228.38661108 980.24206491 1228.39246184 968.68215366 1228.4016161 957.12219024 C1228.41739033 936.47281404 1228.41605339 915.82346573 1228.40737936 895.1740869 C1228.39982645 877.10449005 1228.39786551 859.03490343 1228.4014473 840.96530533 C1228.40167645 839.7657295 1228.40190561 838.56615367 1228.40214171 837.33022705 C1228.40307575 832.46052286 1228.40403096 827.59081867 1228.405021 822.72111448 C1228.41419325 777.0614072 1228.40588492 731.40171765 1228.38973031 685.74201311 C1228.3754922 645.1907922 1228.37676945 604.63959956 1228.39111328 564.08837891 C1228.4071822 518.50803924 1228.41354452 472.92771524 1228.40427649 427.34737313 C1228.40331436 422.4872698 1228.40237584 417.62716647 1228.4014473 412.76706314 C1228.40121006 411.57041822 1228.40097283 410.3737733 1228.40072841 409.14086642 C1228.39731825 391.08281732 1228.40130258 373.02477955 1228.40888596 354.96673203 C1228.4174664 334.43227391 1228.41531343 313.897848 1228.39904372 293.36339389 C1228.39024181 281.87577546 1228.38964984 270.3882268 1228.40098225 258.90061019 C1228.40772058 251.22225608 1228.40350252 243.54395777 1228.39046794 235.86561191 C1228.38334874 231.49432876 1228.38085566 227.12318398 1228.39168589 222.75190531 C1228.40146082 218.76577525 1228.39714035 214.77990479 1228.38214391 210.79379322 C1228.37915244 209.36996968 1228.38104027 207.94612404 1228.38876172 206.5223183 C1228.441522 196.03948662 1227.10807553 186.22301971 1225 176 C1224.76728313 174.87090257 1224.76728313 174.87090257 1224.52986491 173.71899509 C1221.00457885 156.74447427 1215.04021791 141.00951482 1206.90380859 125.71484375 C1206.10438825 124.19806135 1205.34043548 122.66270113 1204.58203125 121.125 C1193.82291255 99.92227928 1175.58855581 80.50470642 1157 66 C1156.44957031 65.5678418 1155.89914062 65.13568359 1155.33203125 64.69042969 C1137.20761135 50.56763733 1116.76055767 40.18327554 1094.875 33.25 C1094.04911377 32.98034424 1093.22322754 32.71068848 1092.37231445 32.43286133 C1070.56811188 25.86508658 1048.54422769 25.41374896 1026.00609603 25.49853251 C1021.58499395 25.51063418 1017.1639365 25.49917002 1012.74283415 25.49089086 C1005.0171691 25.4795914 997.29162211 25.48295141 989.56596184 25.4962616 C978.07764935 25.51599923 966.5894223 25.512606 955.10109966 25.504761 C935.76634032 25.49224396 916.43162992 25.49851577 897.09687614 25.51594925 C877.95589684 25.533204 858.81493954 25.54298895 839.6739521 25.54261398 C838.48136145 25.54259869 837.28877081 25.5425834 836.06004105 25.54256765 C831.2185857 25.54248582 826.37713036 25.54235459 821.53567501 25.54215602 C776.16287693 25.54034575 730.79011231 25.56020633 685.41732584 25.59101535 C645.12041613 25.61827686 604.82353018 25.63073716 564.52661133 25.62939453 C561.93773176 25.62931371 559.34885219 25.62923299 556.75997262 25.62915237 C555.48006694 25.62911167 554.20016126 25.62907097 552.88147055 25.62902904 C546.43836744 25.62882744 539.99526433 25.62864628 533.55216122 25.62848854 C532.28098493 25.62845511 531.00980864 25.62842169 529.70011185 25.62838725 C496.00363265 25.6276568 462.30715641 25.636735 428.61067969 25.64914167 C427.41198069 25.64958221 426.2132817 25.65002276 424.97825849 25.65047665 C420.15826472 25.65225305 415.33827094 25.65402986 410.51827719 25.65585856 C393.75965873 25.66217419 377.0010426 25.66519652 360.24242303 25.66608154 C338.65149741 25.66727612 317.06059136 25.67527341 295.4696741 25.69494446 C284.05494417 25.70516511 272.64024296 25.70999629 261.22550868 25.70695209 C253.59846857 25.70548118 245.97145637 25.71130588 238.3444252 25.72303971 C234.00092136 25.72952651 229.65747762 25.73292896 225.31397092 25.72751851 C221.35547224 25.72265937 217.39709324 25.7271302 213.43860964 25.73875474 C212.02254069 25.74133514 210.6064606 25.74065165 209.19039654 25.73612153 C195.33979426 25.69541285 182.37470016 27.36631233 169 31 Z " fill="#000000" transform="translate(0,0)"/>
<path d="M0 0 C1.06091858 -0.00700928 2.12183716 -0.01401855 3.21490479 -0.02124023 C6.715315 -0.03881737 10.21491385 -0.02719608 13.71533203 -0.01367188 C16.15382034 -0.01636725 18.5923076 -0.02025005 21.03079224 -0.02526855 C26.14009845 -0.03116359 31.24912478 -0.02260153 36.35839844 -0.00390625 C42.89759603 0.01885858 49.43613602 0.00577516 55.97530937 -0.01819611 C61.01116864 -0.03267428 66.04687294 -0.0280383 71.08273697 -0.01768494 C73.49320682 -0.015022 75.90369087 -0.0182721 78.31414413 -0.02760315 C81.68897307 -0.03779877 85.06274916 -0.02222289 88.4375 0 C89.42789276 -0.00809692 90.41828552 -0.01619385 91.43869019 -0.02453613 C98.6016474 0.06253637 103.88328782 1.62829927 109.42773438 6.25170898 C114.07587656 11.78503222 117.54943976 17.73058124 120.97314453 24.08007812 C122.20700559 26.32515233 123.44139176 28.569938 124.67626953 30.81445312 C125.29179687 31.94044922 125.90732422 33.06644531 126.54150391 34.2265625 C129.22684083 39.1182303 131.97153097 43.97547315 134.72314453 48.83007812 C135.24803467 49.75844482 135.7729248 50.68681152 136.3137207 51.64331055 C140.95063372 59.83753666 145.63002332 68.0073813 150.30795288 76.17822266 C155.6816639 85.56764631 160.99463535 94.98986206 166.26977539 104.43505859 C170.10833221 111.30785114 173.9692864 118.16745475 177.84814453 125.01757812 C182.96559221 134.05692445 188.04747666 143.11572167 193.11767578 152.18164062 C197.53937469 160.08383424 201.98978511 167.96942027 206.45141602 175.84912109 C210.46047189 182.93435754 214.43942824 190.0360765 218.41064453 197.14257812 C222.66204765 204.74949258 226.94674382 212.33524601 231.28564453 219.89257812 C237.77586357 231.20596329 244.09372287 242.61368015 250.41162109 254.02392578 C252.34231168 257.50705517 254.2779239 260.98740003 256.21533203 264.46679688 C262.64138658 276.0099857 269.04961902 287.56065321 275.31762695 299.19067383 C277.67353404 303.54079627 280.0804638 307.8594156 282.56298828 312.13867188 C283.28989868 313.39635376 283.28989868 313.39635376 284.03149414 314.67944336 C284.46598877 315.28602783 284.9004834 315.8926123 285.34814453 316.51757812 C286.00814453 316.51757812 286.66814453 316.51757812 287.34814453 316.51757812 C288.20472656 314.86048828 288.20472656 314.86048828 289.07861328 313.16992188 C293.75866831 304.17034503 298.57386166 295.26741388 303.59814453 286.45507812 C308.98611523 277.00210456 314.18565511 267.45897124 319.32324219 257.86791992 C323.04633763 250.92157462 326.82217573 244.00942138 330.66796875 237.13037109 C333.87583954 231.38701594 337.02215363 225.61158897 340.16064453 219.83007812 C344.35027484 212.11593485 348.6304439 204.45900877 352.97314453 196.83007812 C356.93377352 189.87107947 360.78552473 182.87503069 364.47314453 175.76757812 C367.97038663 169.03332037 371.62093862 162.40448506 375.41064453 155.83007812 C375.88840332 154.99702148 376.36616211 154.16396484 376.85839844 153.30566406 C377.5204126 152.16726074 377.5204126 152.16726074 378.19580078 151.00585938 C378.78373413 149.9932605 378.78373413 149.9932605 379.38354492 148.96020508 C379.70186279 148.48413818 380.02018066 148.00807129 380.34814453 147.51757812 C380.67814453 147.51757812 381.00814453 147.51757812 381.34814453 147.51757812 C381.36796387 148.14623779 381.3877832 148.77489746 381.40820312 149.42260742 C383.02544614 198.2660271 399.83633359 236.9889705 434.8269043 271.1574707 C436.32177525 272.61387859 436.32177525 272.61387859 438.34814453 273.51757812 C438.34814453 274.17757813 438.34814453 274.83757812 438.34814453 275.51757812 C436.10502517 277.01505367 433.85675102 278.3999237 431.53564453 279.76757812 C417.28067857 288.44283069 403.84131399 298.27258094 391.92382812 309.97705078 C390.26662555 311.59727828 388.58400759 313.18811765 386.89892578 314.77929688 C374.32670506 326.81100046 363.98126958 340.41820802 355.34814453 355.51757812 C354.95530273 356.19401367 354.56246094 356.87044922 354.15771484 357.56738281 C339.55418985 382.76716268 329.51540634 409.45867396 326.16064453 438.51757812 C326.03181885 439.62490799 326.03181885 439.62490799 325.90039062 440.75460815 C321.58396044 478.61939452 326.30914568 515.36340607 341.34814453 550.51757812 C340.68814453 550.51757812 340.02814453 550.51757812 339.34814453 550.51757812 C339.08098633 551.22785156 338.81382812 551.938125 338.53857422 552.66992188 C336.36624819 557.86639661 333.4111912 562.64705518 330.59814453 567.51757812 C329.98970703 568.5978125 329.38126953 569.67804687 328.75439453 570.79101562 C321.65247366 583.08280175 321.65247366 583.08280175 314.34814453 585.51757812 C301.95792812 586.62255357 301.95792812 586.62255357 296.97167969 582.98461914 C290.22414729 576.88748799 286.13973536 567.0805817 281.72314453 559.26757812 C281.01417355 558.01925733 280.3048589 556.77113165 279.59521484 555.52319336 C278.17445141 553.02395563 276.75524876 550.5238429 275.33740234 548.02294922 C272.60306132 543.20175362 269.85073153 538.39087258 267.09814453 533.58007812 C266.13449815 531.89394005 265.17095558 530.20774264 264.20751953 528.52148438 C263.73765625 527.69922363 263.26779297 526.87696289 262.78369141 526.02978516 C258.36376953 518.29492187 258.36376953 518.29492187 256.85766602 515.65917969 C255.85203952 513.89937399 254.84634301 512.1396083 253.84057617 510.37988281 C251.37661125 506.06864408 248.91377929 501.75676719 246.45361328 497.44335938 C241.0271729 487.9324917 235.57539035 478.43678657 230.09814453 468.95507812 C222.81344927 456.34278386 215.58309346 443.69984358 208.36425781 431.04980469 C205.36054821 425.78663535 202.35329561 420.52549075 199.34631348 415.26419067 C198.34907984 413.51921474 197.35200377 411.77414886 196.35498047 410.02905273 C193.32838763 404.73170483 190.30116055 399.4347234 187.2711792 394.13931274 C185.56730106 391.16144418 183.86390432 388.1833004 182.16064453 385.20507812 C181.82647522 384.62085083 181.49230591 384.03662354 181.14801025 383.43469238 C176.64542562 375.56110846 172.17331551 367.67090211 167.72314453 359.76757812 C162.76138203 350.95916772 157.68942006 342.2194072 152.578125 333.49707031 C148.05190756 325.75971054 143.63024587 317.96747393 139.23828125 310.15332031 C135.38683081 303.31586163 131.44773797 296.53406211 127.47314453 289.76757812 C122.38891741 281.10632552 117.45260233 272.3713277 112.59814453 263.58007812 C108.248484 255.70551219 103.85807776 247.87100763 99.25634766 240.14111328 C95.2872968 233.45987767 91.44390696 226.70770276 87.59814453 219.95507812 C82.54861051 211.08885332 77.45292788 202.25344535 72.28564453 193.45507812 C66.69196096 183.92053476 61.30460861 174.28185932 55.96435547 164.60351562 C51.19049808 155.97432775 46.26165041 147.44569739 41.26611328 138.94335938 C37.8822351 133.1753852 34.56887902 127.37810654 31.34814453 121.51757812 C27.57823621 114.66284669 23.67766967 107.89241083 19.72314453 101.14257812 C8.51456665 81.99959611 -2.59364294 62.79581793 -13.07763672 43.24414062 C-14.63035013 40.35651783 -16.22891117 37.52207349 -17.94482422 34.72851562 C-22.34162076 27.37419327 -24.46045341 21.11694949 -22.65185547 12.51757812 C-17.89165717 2.38400344 -10.45346102 -0.08511401 0 0 Z " fill="#A0D833" transform="translate(221.65185546875,270.482421875)"/>
<path d="M0 0 C0.71317383 0.00432037 1.42634766 0.00864075 2.16113281 0.01309204 C43.48248937 0.30497133 80.69862707 14.82428994 110.8125 43.375 C112.24916016 44.71498047 112.24916016 44.71498047 113.71484375 46.08203125 C138.71899001 69.8762342 154.10111716 102.62908557 159.8125 136.375 C159.98096436 137.23230713 160.14942871 138.08961426 160.32299805 138.97290039 C161.82195126 146.99513776 162.16159532 154.78667582 162.125 162.9375 C162.12284485 163.59418671 162.1206897 164.25087341 162.11846924 164.92745972 C161.93070537 200.73554823 149.98393612 237.07838114 127.8125 265.375 C127.14992188 266.24125 126.48734375 267.1075 125.8046875 268 C100.75959237 299.79155987 63.47026699 322.02688355 23.16894531 327.36401367 C-18.69818226 332.26072695 -59.39820276 320.7872708 -92.5625 294.8125 C-101.10987652 287.97220456 -109.28948477 280.9133076 -116.1875 272.375 C-116.96996094 271.40691406 -117.75242187 270.43882812 -118.55859375 269.44140625 C-143.08466285 238.58344349 -155.65587186 201.98408383 -155.5625 162.6875 C-155.56262085 161.8998526 -155.5627417 161.1122052 -155.56286621 160.3006897 C-155.53750166 148.66057186 -154.83373929 137.64669175 -151.72558594 126.3671875 C-151.21566635 124.47928196 -150.79639696 122.56757237 -150.3828125 120.65625 C-141.34731639 81.07217182 -113.21768029 44.61167424 -79.21289062 23.12744141 C-55.04995513 8.45197639 -28.39187265 -0.32919685 0 0 Z " fill="#0F131A" transform="translate(752.1875,574.625)"/>
<path d="M0 0 C1.44495779 1.05233525 2.88216023 2.11538031 4.3125 3.1875 C5.60220703 4.06535156 5.60220703 4.06535156 6.91796875 4.9609375 C25.71884458 17.95449061 39.94122808 37.41914842 44.3125 60.1875 C47.83016254 84.4471388 44.52658125 109.06769778 30.34765625 129.609375 C16.03938607 147.73501477 -4.07388461 163.98489473 -27.68115234 167.48291016 C-41.30239809 169.0231326 -54.42969525 168.91625759 -67.6875 165.1875 C-68.491875 164.9709375 -69.29625 164.754375 -70.125 164.53125 C-81.14681111 161.22470667 -90.71063092 155.25469352 -99.6875 148.1875 C-100.37328125 147.66800781 -101.0590625 147.14851562 -101.765625 146.61328125 C-115.62905373 135.42673408 -125.58796759 118.41591469 -129.6875 101.1875 C-129.95191895 100.12909912 -129.95191895 100.12909912 -130.22167969 99.04931641 C-133.77934806 83.36508126 -134.3414168 63.07959951 -127.6875 48.1875 C-127.40310059 47.54570801 -127.11870117 46.90391602 -126.82568359 46.24267578 C-116.19378959 22.66231805 -99.14317041 3.62463225 -74.6875 -5.8125 C-69.43797676 -7.51748336 -64.09603905 -8.72092484 -58.6875 -9.8125 C-57.88183594 -10.00457031 -57.07617188 -10.19664062 -56.24609375 -10.39453125 C-38.30436858 -13.32546956 -15.34123363 -9.99216633 0 0 Z " fill="#0F131A" transform="translate(798.6875,346.8125)"/>
<path d="M0 0 C3.57353504 1.52042815 5.87612226 3.62018289 8.6166687 6.34924316 C10.00024567 7.72002518 10.00024567 7.72002518 11.41177368 9.11849976 C12.42680507 10.13423017 13.44172441 11.15007257 14.45654297 12.16601562 C15.53072942 13.2342164 16.60532478 14.30200612 17.68029785 15.36941528 C20.59849648 18.26994344 23.51017324 21.17693464 26.42018652 24.08567238 C28.24097244 25.90503589 30.06317545 27.72296742 31.88589859 29.54039001 C38.2520883 35.88807077 44.61308318 42.24090443 50.96923828 48.59863281 C56.88127987 54.51187364 62.8043582 60.41389455 68.73279083 66.31069803 C73.83055179 71.38223478 78.9204974 76.46152733 84.0045253 81.54683065 C87.03717924 84.57999274 90.07280627 87.61001921 93.11632919 90.63227844 C95.98330724 93.47977246 98.84036223 96.33687384 101.69036865 99.20135117 C102.73252436 100.24558402 103.77804072 101.28647648 104.82730484 102.32356644 C114.1240133 111.51944286 121.07956129 120.05926189 122.3125 133.375 C121.53082863 142.44238785 118.59558049 149.61129196 112 156 C105.95187177 160.97176643 100.09932237 162.54461234 92.4375 162.6875 C91.75381348 162.7069165 91.07012695 162.72633301 90.36572266 162.74633789 C78.40906799 162.47246721 70.45807405 154.16920774 62.58349609 146.15112305 C61.47966227 145.04587619 60.374721 143.94173443 59.26876831 142.83860779 C56.29121704 139.86248211 53.32925933 136.87127385 50.37000227 133.87697196 C47.2667345 130.7422971 44.14915556 127.62191973 41.03311157 124.49995422 C35.14429493 118.5956412 29.26833268 112.6787075 23.39695895 106.75705415 C16.70789208 100.01196269 10.00450128 93.28118357 3.29991031 86.55152833 C-10.48264744 72.71680772 -24.24724799 58.86434697 -38 45 C-36.65940965 42.21860866 -35.43340653 40.19668085 -33.20703125 38.046875 C-32.66296631 37.51465332 -32.11890137 36.98243164 -31.55834961 36.43408203 C-30.98221924 35.87833496 -30.40608887 35.32258789 -29.8125 34.75 C-20.88636926 25.96593935 -13.12034991 16.49035622 -5.34228516 6.68994141 C-3.56734977 4.45529194 -1.78429724 2.2271777 0 0 Z " fill="#FBFBFC" transform="translate(933,858)"/>
<path d="M0 0 C2.93281518 0.71490888 4.06243962 2.24115045 6.03515625 4.49609375 C7.26782227 7.01049805 7.26782227 7.01049805 8.2890625 9.8203125 C8.66869141 10.84962891 9.04832031 11.87894531 9.43945312 12.93945312 C9.82166016 14.01001953 10.20386719 15.08058594 10.59765625 16.18359375 C11.17676758 17.76043945 11.17676758 17.76043945 11.76757812 19.36914062 C13.96249993 25.37806625 16.04639872 31.41630891 18.03515625 37.49609375 C19.58156528 42.20373753 21.13141635 46.91021259 22.68652344 51.61499023 C23.16699625 53.07148424 23.64585129 54.52851296 24.12304688 55.98608398 C26.78208506 64.10329251 29.58656532 72.04626053 32.95898438 79.90209961 C34.42052351 83.42497922 35.51952873 86.96222195 36.59765625 90.62109375 C38.22255385 96.04735728 40.04314726 101.29676907 42.3359375 106.48046875 C43.03515625 108.49609375 43.03515625 108.49609375 43.03515625 112.49609375 C43.69515625 112.49609375 44.35515625 112.49609375 45.03515625 112.49609375 C45.30666504 111.78324219 45.57817383 111.07039062 45.85791016 110.3359375 C47.04642726 107.46890496 48.40171176 104.79171058 49.87109375 102.05859375 C50.43530029 101.00800781 50.99950684 99.95742188 51.58081055 98.875 C52.18449463 97.75996094 52.78817871 96.64492188 53.41015625 95.49609375 C54.02995361 94.35011719 54.64975098 93.20414063 55.28833008 92.0234375 C59.37659846 84.48298877 63.50893713 76.96724563 67.72265625 69.49609375 C68.21491699 68.61308594 68.70717773 67.73007812 69.21435547 66.8203125 C69.67471191 66.01207031 70.13506836 65.20382812 70.609375 64.37109375 C71.00729248 63.66726563 71.40520996 62.9634375 71.81518555 62.23828125 C73.85660243 59.32302192 75.79020197 58.541067 79.2265625 57.91015625 C84.7980429 58.76730708 87.23562991 61.85168171 90.97265625 65.87109375 C91.65650391 66.56976562 92.34035156 67.2684375 93.04492188 67.98828125 C98.03515625 73.17294034 98.03515625 73.17294034 98.03515625 75.49609375 C103.31515625 75.49609375 108.59515625 75.49609375 114.03515625 75.49609375 C114.69515625 73.51609375 115.35515625 71.53609375 116.03515625 69.49609375 C117.8046875 67.44921875 117.8046875 67.44921875 119.84765625 65.74609375 C120.84732422 64.88757813 120.84732422 64.88757813 121.8671875 64.01171875 C127.57659632 60.02027619 133.26357091 59.6337605 140.03515625 60.49609375 C147.53078328 62.80491869 152.05072774 66.83577598 156.03515625 73.49609375 C158.58721658 78.6002144 157.80843112 86.63718609 156.3515625 92.0234375 C153.65236616 97.85862958 149.38534856 101.15970989 143.84765625 104.30859375 C137.44166171 106.30390353 130.96711293 106.70890783 124.72265625 103.93359375 C120.27766285 101.36354612 115.83925742 97.47164655 114.46459961 92.38476562 C114.25202515 91.44987305 114.25202515 91.44987305 114.03515625 90.49609375 C113.41060547 90.53275146 112.78605469 90.56940918 112.14257812 90.60717773 C109.27395251 90.75395327 106.40611738 90.8441045 103.53515625 90.93359375 C102.55289063 90.99224609 101.570625 91.05089844 100.55859375 91.11132812 C94.95326221 91.24211919 91.67018409 90.79580492 87.31640625 87.09375 C85.38085938 85.20727539 85.38085938 85.20727539 84.03515625 83.49609375 C84.03515625 82.83609375 84.03515625 82.17609375 84.03515625 81.49609375 C83.37515625 81.49609375 82.71515625 81.49609375 82.03515625 81.49609375 C82.03515625 80.83609375 82.03515625 80.17609375 82.03515625 79.49609375 C81.37515625 79.49609375 80.71515625 79.49609375 80.03515625 79.49609375 C79.71417969 80.65044922 79.71417969 80.65044922 79.38671875 81.828125 C77.52523027 86.87996802 74.99094718 91.46618019 72.41015625 96.18359375 C71.56529663 97.73276489 71.56529663 97.73276489 70.70336914 99.31323242 C66.41911514 107.10590689 62.02546361 114.83329813 57.52886963 122.50527954 C56.82803242 123.70184619 56.12972212 124.89989667 55.434021 126.09945679 C54.45434634 127.78496189 53.46178898 129.46295892 52.46875 131.140625 C51.90212646 132.10331299 51.33550293 133.06600098 50.75170898 134.05786133 C49.02674879 136.50803591 47.58868268 137.95247581 45.03515625 139.49609375 C41.6377609 139.99154724 39.86246314 140.10431147 37.05859375 138.04296875 C34.20471662 134.45082997 33.06454312 130.63882059 31.66015625 126.30859375 C31.04456956 124.48167015 30.42867986 122.65484862 29.8125 120.828125 C29.51069824 119.9201416 29.20889648 119.0121582 28.89794922 118.07666016 C27.71381514 114.53498012 26.47324846 111.01473911 25.22265625 107.49609375 C24.87618042 106.51552002 24.87618042 106.51552002 24.52270508 105.51513672 C22.20072903 98.94545802 19.86119514 92.38200296 17.52017212 85.8190918 C16.86296679 83.97651912 16.20625774 82.13376946 15.54956055 80.29101562 C13.02712124 73.22143126 13.02712124 73.22143126 10.41796875 66.18359375 C9.17581487 62.8711834 7.99699941 59.5458807 6.84057617 56.203125 C3.7201321 45.07426465 3.7201321 45.07426465 -1.96484375 35.49609375 C-4.48846191 42.8909789 -7.00862144 50.28703973 -9.52734375 57.68359375 C-9.90667053 58.79723297 -10.28599731 59.91087219 -10.67681885 61.05825806 C-14.93204503 73.55617919 -19.16723616 86.06016018 -23.328125 98.58984375 C-23.67003372 99.61910477 -24.01194244 100.64836578 -24.36421204 101.70881653 C-25.99065389 106.60854509 -27.61246572 111.50975677 -29.22875977 116.4128418 C-29.81521505 118.18409921 -30.40171948 119.95534035 -30.98828125 121.7265625 C-31.24696487 122.51611328 -31.5056485 123.30566406 -31.77217102 124.11914062 C-35.83671141 136.36796141 -35.83671141 136.36796141 -37.96484375 138.49609375 C-41.08999195 139.14660743 -43.84247742 139.1713372 -46.96484375 138.49609375 C-49.95684603 136.31611714 -51.88035615 133.52764307 -53.96484375 130.49609375 C-54.50882813 129.70589844 -55.0528125 128.91570312 -55.61328125 128.1015625 C-56.8796054 126.21313587 -58.13362849 124.31643347 -59.37890625 122.4140625 C-62.94733823 116.98092359 -66.60522885 111.60950279 -70.27734375 106.24609375 C-70.98366943 105.19671631 -71.68999512 104.14733887 -72.41772461 103.06616211 C-73.08940674 102.0891333 -73.76108887 101.11210449 -74.453125 100.10546875 C-75.05680908 99.21827148 -75.66049316 98.33107422 -76.2824707 97.41699219 C-77.11524536 96.46614746 -77.11524536 96.46614746 -77.96484375 95.49609375 C-81.48062764 95.49609375 -81.78213953 95.9167227 -84.22265625 98.2421875 C-84.84438721 98.82846924 -85.46611816 99.41475098 -86.10668945 100.01879883 C-86.76113037 100.65068115 -87.41557129 101.28256348 -88.08984375 101.93359375 C-88.75910889 102.56869873 -89.42837402 103.20380371 -90.11791992 103.8581543 C-94.6038184 108.13180507 -99.01317786 112.47542471 -103.328125 116.921875 C-106.85236938 120.31154202 -110.7870825 119.71560482 -115.40234375 119.74609375 C-116.17900391 119.76671875 -116.95566406 119.78734375 -117.75585938 119.80859375 C-123.50370544 119.84819992 -123.50370544 119.84819992 -125.67993164 118.18652344 C-126.96484375 116.49609375 -126.96484375 116.49609375 -127.46484375 113.12109375 C-126.96484375 109.49609375 -126.96484375 109.49609375 -125.02734375 106.62109375 C-121.85050101 104.41675389 -121.31279632 104.31425466 -117.72045898 104.26367188 C-112.09824358 103.73789253 -109.54124057 101.10340902 -105.8125 97.08984375 C-105.18629257 96.44994507 -104.56008514 95.81004639 -103.91490173 95.15075684 C-101.93257318 93.1173387 -99.97979373 91.05817779 -98.02734375 88.99609375 C-96.04400295 86.94045241 -94.05505751 84.89037756 -92.06480408 82.84143066 C-90.83184742 81.5678969 -89.60409021 80.28930466 -88.38209534 79.00524902 C-83.26013419 73.6427304 -83.26013419 73.6427304 -78.65234375 73.12109375 C-74.14193683 73.5797792 -72.72073056 75.17614217 -69.96484375 78.49609375 C-67.64499909 81.58093524 -65.45711201 84.74874675 -63.27734375 87.93359375 C-62.04222779 89.71913828 -60.80654667 91.50429199 -59.5703125 93.2890625 C-58.96364746 94.16739746 -58.35698242 95.04573242 -57.73193359 95.95068359 C-55.21737444 99.57278828 -52.65959788 103.16302216 -50.08984375 106.74609375 C-49.66743408 107.33575928 -49.24502441 107.9254248 -48.80981445 108.53295898 C-47.86236924 109.854634 -46.91376365 111.17547711 -45.96484375 112.49609375 C-41.95990207 103.22583169 -39.02192789 93.60703791 -35.96484375 83.99609375 C-30.1784452 65.80465684 -30.1784452 65.80465684 -27.90234375 60.40234375 C-25.85199135 55.49520215 -24.43195452 50.42698819 -22.96755981 45.32369995 C-20.74212019 37.61458037 -18.22241318 30.01581594 -15.62548828 22.42480469 C-14.82464278 20.07652061 -14.03734834 17.72393284 -13.25 15.37109375 C-12.73649162 13.86300365 -12.22219952 12.35518013 -11.70703125 10.84765625 C-11.36005692 9.80250351 -11.36005692 9.80250351 -11.006073 8.73623657 C-8.6886979 2.05346926 -7.2313075 0.20899733 0 0 Z " fill="#9ED735" transform="translate(738.96484375,631.50390625)"/>
<path d="M0 0 C7.26 0 14.52 0 22 0 C22 35.97 22 71.94 22 109 C14 109 14 109 0 107 C0 71.69 0 36.38 0 0 Z " fill="#79A42A" transform="translate(727,778)"/>
<path d="M0 0 C7.59 0 15.18 0 23 0 C23.34099946 9.25874746 23.61521575 18.51322827 23.77718258 27.77687168 C23.85498356 32.0801293 23.96016391 36.378817 24.1315918 40.67944336 C25.36108259 72.33173081 25.36108259 72.33173081 17.76234436 80.77268982 C14.69885566 83.55321645 11.52032502 85.84153194 8 88 C7.22261475 88.60529541 6.44522949 89.21059082 5.64428711 89.83422852 C4 91 4 91 2 91 C2 91.66 2 92.32 2 93 C1.34 93 0.68 93 0 93 C0 62.31 0 31.62 0 0 Z " fill="#77A12A" transform="translate(839,766)"/>
<path d="M0 0 C7.26 0 14.52 0 22 0 C22 23.1 22 46.2 22 70 C4 78 4 78 0 79 C0 52.93 0 26.86 0 0 Z " fill="#79A42B" transform="translate(802,800)"/>
<path d="M0 0 C7.59 0 15.18 0 23 0 C23 21.45 23 42.9 23 65 C14 62 14 62 0 55 C0 36.85 0 18.7 0 0 Z " fill="#76A02B" transform="translate(689,815)"/>
<path d="M0 0 C7.59 0 15.18 0 23 0 C23 19.14 23 38.28 23 58 C8 61 8 61 0 61 C0 40.87 0 20.74 0 0 Z " fill="#77A12B" transform="translate(764,826)"/>
<path d="M0 0 C7.26 0 14.52 0 22 0 C22 21.45 22 42.9 22 65 C18.61705681 63.30852841 16.16960616 61.70882531 13.25 59.375 C12.45078125 58.74335937 11.6515625 58.11171875 10.828125 57.4609375 C9.89484375 56.64882813 8.9615625 55.83671875 8 55 C7.34042297 54.47153473 6.68084595 53.94306946 6.00128174 53.39859009 C1.93718258 49.84644976 -0.49013123 47.29133082 -0.90820312 41.77734375 C-0.90695201 39.83026965 -0.86265131 37.88287219 -0.78125 35.9375 C-0.76993042 34.90560547 -0.75861084 33.87371094 -0.74694824 32.81054688 C-0.70242525 29.53841665 -0.60210679 26.27078864 -0.5 23 C-0.45984194 20.77219903 -0.42334526 18.54432887 -0.390625 16.31640625 C-0.30958405 10.87450623 -0.15306314 5.44224515 0 0 Z " fill="#79A42B" transform="translate(652,795)"/>
<path d="M0 0 C1.32 1.65 2.64 3.3 4 5 C-1.38243098 12.16908344 -6.83845368 19.13315023 -12.91796875 25.734375 C-14.8244044 27.80892036 -16.6676561 29.92265931 -18.5 32.0625 C-22.44360827 36.59718773 -26.71358275 40.79215252 -31 45 C-31.66 45.66 -32.32 46.32 -33 47 C-33.99 46.01 -34.98 45.02 -36 44 C-35.2059375 43.24074219 -34.411875 42.48148438 -33.59375 41.69921875 C-32.56210945 40.69571385 -31.53088069 39.69178548 -30.5 38.6875 C-29.97535156 38.18798828 -29.45070313 37.68847656 -28.91015625 37.17382812 C-27.5489154 35.83910496 -26.26860484 34.4230616 -25 33 C-25 32.01 -25 31.02 -25 30 C-23.44639884 28.13387559 -21.88044504 26.41897257 -20.1875 24.6875 C-12.83933527 16.94344204 -6.37445287 8.55518675 0 0 Z " fill="#191C24" transform="translate(927,856)"/>
<path d="M0 0 C5.94 0 11.88 0 18 0 C18 0.33 18 0.66 18 1 C13.05 1 8.1 1 3 1 C1.79767232 4.60698305 1.8240045 7.9275757 1.79467773 11.68432617 C1.78477814 12.4650499 1.77487854 13.24577362 1.76467896 14.05015564 C1.73308823 16.63106248 1.70831612 19.21198773 1.68359375 21.79296875 C1.66302213 23.58230569 1.6420256 25.3716378 1.62062073 27.16096497 C1.56542158 31.87092166 1.51600277 36.58092206 1.46777344 41.29095459 C1.41754269 46.09700409 1.36186483 50.90299012 1.30664062 55.70898438 C1.19908542 65.13926869 1.09763456 74.56960812 1 84 C0.67 84 0.34 84 0 84 C0 56.28 0 28.56 0 0 Z " fill="#84B12F" transform="translate(727,778)"/>
<path d="M0 0 C0 4.35653709 -2.69939985 6.26866347 -5.5625 9.25 C-6.38089355 10.11854614 -6.38089355 10.11854614 -7.21582031 11.00463867 C-11.0695935 15.07828481 -14.9893465 19.08049771 -19 23 C-19.99 22.67 -20.98 22.34 -22 22 C-14.74 14.74 -7.48 7.48 0 0 Z " fill="#8DC432" transform="translate(648,713)"/>
<path d="M0 0 C0.66 0.33 1.32 0.66 2 1 C0.06925078 3.15226153 -1.86903417 5.29677351 -3.8125 7.4375 C-4.35970703 8.04916016 -4.90691406 8.66082031 -5.47070312 9.29101562 C-6.00244141 9.87431641 -6.53417969 10.45761719 -7.08203125 11.05859375 C-7.56905518 11.59798584 -8.0560791 12.13737793 -8.55786133 12.69311523 C-10 14 -10 14 -13 15 C-13.6837045 16.32467746 -14.34964186 17.65863633 -15 19 C-15.99 19.66 -16.98 20.32 -18 21 C-18.66 20.34 -19.32 19.68 -20 19 C-19.56171875 18.63390625 -19.1234375 18.2678125 -18.671875 17.890625 C-12.09553103 12.27667283 -6.06349064 6.154443 0 0 Z " fill="#18251C" transform="translate(652,731)"/>
<path d="M0 0 C0.33 0 0.66 0 1 0 C1 9.57 1 19.14 1 29 C0.67 29 0.34 29 0 29 C0 26.03 0 23.06 0 20 C-0.66 20 -1.32 20 -2 20 C-2.05392397 17.22890693 -2.09363455 14.45886182 -2.125 11.6875 C-2.14175781 10.90181641 -2.15851562 10.11613281 -2.17578125 9.30664062 C-2.18544922 8.1706543 -2.18544922 8.1706543 -2.1953125 7.01171875 C-2.20578613 6.31522217 -2.21625977 5.61872559 -2.22705078 4.90112305 C-2 3 -2 3 0 0 Z " fill="#DCDEDF" transform="translate(907,408)"/>
<path d="M0 0 C-1.10486898 3.31460693 -1.87623086 3.96976106 -4.5 6.125 C-9.26805588 10.15884438 -13.63203028 14.54103091 -18 19 C-18.66 18.67 -19.32 18.34 -20 18 C-3.89320388 0 -3.89320388 0 0 0 Z " fill="#1D2028" transform="translate(658,610)"/>
<path d="M0 0 C1.32 1.65 2.64 3.3 4 5 C3.19152271 6.16945792 2.37810888 7.33550461 1.5625 8.5 C1.11003906 9.1496875 0.65757812 9.799375 0.19140625 10.46875 C-0.20175781 10.9740625 -0.59492187 11.479375 -1 12 C-1.33 12 -1.66 12 -2 12 C-2 10.02 -2 8.04 -2 6 C-2.66 5.67 -3.32 5.34 -4 5 C-2.68 3.35 -1.36 1.7 0 0 Z " fill="#1C212A" transform="translate(927,856)"/>
<path d="M0 0 C2.90408342 3.87211123 3.85079464 6.40317854 5 11 C4.01 10.67 3.02 10.34 2 10 C2 9.01 2 8.02 2 7 C1.01 7.495 1.01 7.495 0 8 C0 8.66 0 9.32 0 10 C-0.99 10 -1.98 10 -3 10 C-2.01 6.7 -1.02 3.4 0 0 Z " fill="#17221A" transform="translate(737,665)"/>
<path d="M0 0 C2.70748323 2.40665176 4.84429936 5.01793002 6.875 8 C7.55175781 8.99 7.55175781 8.99 8.2421875 10 C9 12 9 12 8.1328125 14.25 C7.75898437 14.8275 7.38515625 15.405 7 16 C6.80664062 15.43410156 6.61328125 14.86820313 6.4140625 14.28515625 C6.15367187 13.55167969 5.89328125 12.81820312 5.625 12.0625 C5.24214844 10.96615234 5.24214844 10.96615234 4.8515625 9.84765625 C4.14728587 7.81317884 4.14728587 7.81317884 2 7 C0.42451317 4.37418862 0 3.12900213 0 0 Z " fill="#191C24" transform="translate(884,644)"/>
<path d="M0 0 C0 0.99 0 1.98 0 3 C-2.3260857 3.38063221 -4.66055264 3.71269945 -7 4 C-7.33 3.67 -7.66 3.34 -8 3 C-10.67058851 2.85884839 -13.32432238 2.95752893 -16 3 C-16 2.67 -16 2.34 -16 2 C-14.08404518 1.66259915 -12.16720278 1.33023588 -10.25 1 C-9.18265625 0.814375 -8.1153125 0.62875 -7.015625 0.4375 C-4 0 -4 0 0 0 Z " fill="#3D3F45" transform="translate(804,947)"/>
<path d="M0 0 C1.94847691 5.84543074 -0.46331351 10.7236921 -3 16 C-3.66 16.33 -4.32 16.66 -5 17 C-1.92482916 5.47835991 -1.92482916 5.47835991 0 0 Z " fill="#C1C1C5" transform="translate(907,784)"/>
<path d="M0 0 C0.33 0 0.66 0 1 0 C0.67 6.27 0.34 12.54 0 19 C-0.33 19 -0.66 19 -1 19 C-1.33 13.72 -1.66 8.44 -2 3 C-1.34 3 -0.68 3 0 3 C0 2.01 0 1.02 0 0 Z " fill="#BBE472" transform="translate(546,708)"/>
<path d="M0 0 C0.66 0 1.32 0 2 0 C1.46884894 4.51478398 -0.36620292 7.34666857 -3 11 C-3.66 10.67 -4.32 10.34 -5 10 C-3.35 6.7 -1.7 3.4 0 0 Z " fill="#18241D" transform="translate(819,711)"/>
<path d="M0 0 C0.66 0.33 1.32 0.66 2 1 C-0.97 4.3 -3.94 7.6 -7 11 C-8.32 10.67 -9.64 10.34 -11 10 C-9.93458984 9.04287109 -9.93458984 9.04287109 -8.84765625 8.06640625 C-7.46900391 6.82697266 -7.46900391 6.82697266 -6.0625 5.5625 C-4.68771484 4.32693359 -4.68771484 4.32693359 -3.28515625 3.06640625 C-1.61665644 1.56046061 -1.61665644 1.56046061 0 0 Z " fill="#E1E1E3" transform="translate(820,486)"/>
<path d="M0 0 C0 0.99 0 1.98 0 3 C-1.45463481 3.38909985 -2.91391207 3.76088029 -4.375 4.125 C-5.18710937 4.33382813 -5.99921875 4.54265625 -6.8359375 4.7578125 C-7.55007813 4.83773438 -8.26421875 4.91765625 -9 5 C-9.66 4.34 -10.32 3.68 -11 3 C-9.54293274 2.49632243 -8.08429904 1.99717444 -6.625 1.5 C-5.81289063 1.2215625 -5.00078125 0.943125 -4.1640625 0.65625 C-2 0 -2 0 0 0 Z " fill="#272A31" transform="translate(730,340)"/>
<path d="M0 0 C1.0169313 2.65498232 1.13022151 3.69155375 0.00390625 6.359375 C-0.47175781 7.14828125 -0.94742188 7.9371875 -1.4375 8.75 C-1.91058594 9.54921875 -2.38367188 10.3484375 -2.87109375 11.171875 C-3.24363281 11.77515625 -3.61617187 12.3784375 -4 13 C-4.66 13 -5.32 13 -6 13 C-4.58707905 8.1725201 -2.57025846 4.2837641 0 0 Z " fill="#8EC332" transform="translate(518,570)"/>
<path d="M0 0 C0.99 0.33 1.98 0.66 3 1 C1.02 3.31 -0.96 5.62 -3 8 C-4.32 7.67 -5.64 7.34 -7 7 C-4.69 4.69 -2.38 2.38 0 0 Z " fill="#2A2E35" transform="translate(695,359)"/>
<path d="M0 0 C0 0.99 0 1.98 0 3 C-3.63 2.67 -7.26 2.34 -11 2 C-11 1.67 -11 1.34 -11 1 C-7.27569643 0.30710631 -3.78916254 -0.11144596 0 0 Z " fill="#21242C" transform="translate(736,576)"/>
<path d="M0 0 C-1 3 -1 3 -3.8125 4.75 C-7.13982105 6.05483179 -7.79584277 6.02866653 -11 5 C-9.54462432 4.16151196 -8.08559627 3.32936066 -6.625 2.5 C-5.81289063 2.0359375 -5.00078125 1.571875 -4.1640625 1.09375 C-2 0 -2 0 0 0 Z " fill="#2E3138" transform="translate(851,928)"/>
<path d="M0 0 C0.66 0.33 1.32 0.66 2 1 C1.09515208 2.15518918 0.1755794 3.29885406 -0.75 4.4375 C-1.26046875 5.07558594 -1.7709375 5.71367188 -2.296875 6.37109375 C-4.19667629 8.18810554 -5.43586908 8.60423197 -8 9 C-7.04270084 7.87411986 -6.08412105 6.7493285 -5.125 5.625 C-4.59132813 4.99851562 -4.05765625 4.37203125 -3.5078125 3.7265625 C-2.38567993 2.44163349 -1.20628025 1.20628025 0 0 Z " fill="#203219" transform="translate(652,731)"/>
<path d="M0 0 C0.90574136 3.62296546 1.24080386 6.30767418 1 10 C0.34 10.66 -0.32 11.32 -1 12 C-1.66 11.67 -2.32 11.34 -3 11 C-2.01 7.37 -1.02 3.74 0 0 Z " fill="#40434A" transform="translate(901,468)"/>
<path d="M0 0 C0.99 0.33 1.98 0.66 3 1 C3.6875 3.0625 3.6875 3.0625 4 5 C1.69 4.67 -0.62 4.34 -3 4 C-2.01 2.68 -1.02 1.36 0 0 Z " fill="#222630" transform="translate(911,876)"/>
<path d="M0 0 C1.125 1.75 1.125 1.75 2 4 C1.125 6.25 1.125 6.25 0 8 C-0.99 8 -1.98 8 -3 8 C-1.125 2.25 -1.125 2.25 0 0 Z " fill="#272932" transform="translate(944,827)"/>
<path d="M0 0 C2.45823172 3.68734758 3.01242616 6.69699971 4 11 C2 9.4375 2 9.4375 0 7 C-0.25 3.25 -0.25 3.25 0 0 Z " fill="#82B32B" transform="translate(778,731)"/>
<path d="M0 0 C1.89213369 2.38573379 3.02391783 4.07175348 4 7 C3.34 7.66 2.68 8.32 2 9 C-0.29013653 5.5647952 -0.17842973 4.014669 0 0 Z " fill="#8EC62A" transform="translate(480,540)"/>
</svg>
